<?xml version="1.0" encoding="utf-8"?>
<!-- Generator: Adobe Illustrator 16.0.3, SVG Export Plug-In . SVG Version: 6.00 Build 0)  -->
<!DOCTYPE svg PUBLIC "-//W3C//DTD SVG 1.1//EN" "http://www.w3.org/Graphics/SVG/1.1/DTD/svg11.dtd">
<svg version="1.1" id="Calque_1" xmlns="http://www.w3.org/2000/svg" xmlns:xlink="http://www.w3.org/1999/xlink" x="0px" y="0px"
	 width="176.855px" height="369.4px" viewBox="0 0 176.855 369.4" enable-background="new 0 0 176.855 369.4" xml:space="preserve">
<g>
	<path d="M88.428,104.076c6.143,0,11.12-4.973,11.12-11.114V35.619l17.943,15.687c2.1,1.838,4.716,2.747,7.307,2.747
		c3.094,0,6.183-1.274,8.38-3.794c4.036-4.625,3.571-11.65-1.054-15.687L95.74,2.747c-0.386-0.333-0.856-0.458-1.27-0.727
		c-0.498-0.333-0.948-0.738-1.479-0.98c-0.229-0.105-0.458-0.164-0.687-0.255c-0.59-0.216-1.179-0.281-1.786-0.399
		c-0.589-0.118-1.146-0.294-1.74-0.321C88.649,0.065,88.55,0,88.42,0s-0.229,0.064-0.359,0.064
		c-0.603,0.026-1.157,0.203-1.753,0.321c-0.603,0.118-1.19,0.177-1.772,0.412c-0.229,0.078-0.458,0.137-0.681,0.242
		c-0.543,0.242-0.987,0.667-1.491,0.98c-0.412,0.281-0.883,0.399-1.263,0.727L44.723,34.573c-4.631,4.035-5.097,11.062-1.061,15.687
		c2.198,2.52,5.292,3.794,8.38,3.794c2.592,0,5.207-0.909,7.313-2.747l17.942-15.687v57.343
		C77.315,99.104,82.285,104.076,88.428,104.076z"/>
	<path d="M110.774,119.919H66.082C29.653,119.919,0,149.559,0,185.989v117.33c0,36.436,29.646,66.082,66.082,66.082h44.691
		c36.437,0,66.083-29.642,66.083-66.082v-117.33C176.857,149.559,147.216,119.919,110.774,119.919z M154.609,303.312
		c0,24.172-19.664,43.836-43.835,43.836H66.082c-24.171,0-43.835-19.664-43.835-43.836V185.99c0-24.171,19.664-43.835,43.835-43.835
		h44.691c24.171,0,43.835,19.664,43.835,43.835V303.312z"/>
	<path d="M88.428,177.989c-6.144,0-11.113,4.972-11.113,11.113v30.418c0,6.144,4.971,11.114,11.113,11.114
		c6.142,0,11.12-4.972,11.12-11.114v-30.418C99.549,182.96,94.577,177.989,88.428,177.989z"/>
</g>
</svg>
