<?xml version="1.0" encoding="utf-8"?>
<!-- Generator: Adobe Illustrator 16.0.3, SVG Export Plug-In . SVG Version: 6.00 Build 0)  -->
<!DOCTYPE svg PUBLIC "-//W3C//DTD SVG 1.1//EN" "http://www.w3.org/Graphics/SVG/1.1/DTD/svg11.dtd">
<svg version="1.1" id="Calque_1" xmlns="http://www.w3.org/2000/svg" xmlns:xlink="http://www.w3.org/1999/xlink" x="0px" y="0px"
	 width="176.857px" height="366.064px" viewBox="207.603 181.884 176.857 366.064"
	 enable-background="new 207.603 181.884 176.857 366.064" xml:space="preserve">
<g>
	<path d="M296.031,445.359c-6.143,0-11.12,4.984-11.12,11.127v57.342l-17.943-15.686c-4.632-4.049-11.65-3.578-15.693,1.047
		s-3.572,11.65,1.053,15.686l36.385,31.824c0.543,0.473,1.19,0.701,1.792,1.061c0.104,0.066,0.189,0.137,0.288,0.189
		c0.287,0.164,0.517,0.42,0.817,0.563c0.111,0.039,0.229,0.066,0.34,0.105c1.315,0.523,2.695,0.83,4.076,0.83c0,0,0,0,0.006,0
		c0.007,0,0.007,0,0.007,0c1.38,0,2.767-0.307,4.082-0.83c0.104-0.039,0.222-0.066,0.333-0.105c0.295-0.137,0.523-0.398,0.818-0.563
		c0.104-0.053,0.183-0.131,0.294-0.189c0.602-0.359,1.243-0.588,1.786-1.061l36.384-31.824c4.625-4.035,5.089-11.061,1.053-15.686
		c-4.049-4.625-11.081-5.096-15.687-1.047l-17.943,15.686v-57.342C307.153,450.343,302.181,445.359,296.031,445.359z"/>
	<path d="M384.46,365.276V247.954c0-36.423-29.64-66.07-66.083-66.07h-44.698c-36.43,0-66.076,29.64-66.076,66.07v117.329
		c0,36.437,29.646,66.083,66.076,66.083h44.698C354.821,431.359,384.46,401.72,384.46,365.276z M362.212,365.276
		c0,24.171-19.664,43.835-43.835,43.835h-44.698c-24.171,0-43.828-19.664-43.828-43.835V247.954
		c0-24.171,19.657-43.835,43.828-43.835h44.698c24.171,0,43.835,19.664,43.835,43.835V365.276z"/>
	<path d="M296.031,239.954c-6.143,0-11.12,4.972-11.12,11.114v30.418c0,6.143,4.978,11.114,11.12,11.114s11.121-4.972,11.121-11.114
		v-30.418C307.153,244.925,302.181,239.954,296.031,239.954z"/>
</g>
</svg>
